# This file uses centimeters as units for non-parametric coordinates.

mtllib Granada.mtl
g default
v 2.220379 -2.689442 5.090050
v -2.590294 -2.916014 5.090050
v 2.015526 2.015526 5.090050
v -2.015526 2.015526 5.090050
v -0.389397 -2.842005 4.928743
v -0.389397 -2.842005 6.142231
v -0.389397 2.745404 4.928743
v 2.745404 0.275968 4.928743
v -0.389397 0.275968 4.928743
v -2.745404 0.275968 4.928743
v -0.389397 0.275968 6.142231
v 2.957145 -0.643090 5.001304
v -0.389397 -1.083154 4.928743
v -3.921441 -1.101682 5.001304
v -0.389397 -1.083154 6.142231
v 2.723385 -1.656343 5.052966
v -0.389397 -2.050822 4.928743
v -3.829189 -2.032143 5.052966
v -0.389397 -2.050822 6.142231
v -1.785426 -2.868147 4.985719
v -1.785431 -2.044223 4.972622
v -1.785431 -1.089698 4.954374
v -1.785427 0.275968 4.928743
v -0.963774 2.487598 4.985719
v -1.785427 0.275968 6.142231
v -1.785431 -1.089698 6.116601
v -1.785431 -2.044223 6.098354
v -1.785426 -2.868147 6.085255
v 1.312830 -2.771997 5.002764
v 1.312830 -2.771997 6.068211
v 1.312832 -1.869802 6.085227
v 1.312833 -0.881216 6.108934
v 1.312832 0.275968 6.142231
v 0.714181 2.410474 5.002764
v 1.312832 0.275968 4.928743
v 1.312833 -0.881216 4.962041
v 1.312832 -1.869802 4.985748
v 1.112877 0.075957 4.929278
v 1.112863 -0.881313 4.958197
v -0.189427 -1.083154 4.932588
v -0.189436 0.076013 4.933503
v 1.112942 -1.869951 4.979032
v -0.189507 -2.050822 4.935461
v 1.112911 -2.659527 4.992726
v -0.189459 -2.713115 4.934243
v -1.585453 -1.089762 4.950969
v -1.585453 0.075959 4.928795
v -0.589372 0.075994 4.932457
v -0.589374 -1.083154 4.932148
v -1.585520 -2.044335 4.966532
v -0.589307 -2.050822 4.934837
v -1.585493 -2.743838 4.976633
v -0.589332 -2.725201 4.934145
v 1.127538 0.049760 4.500401
v 1.127527 -0.907511 4.019951
v 0.059491 -1.109351 3.994341
v 0.059483 0.049816 4.504626
v 1.127592 -1.896148 3.628068
v 0.059426 -2.077019 3.584496
v 1.127567 -2.685723 3.429965
v 0.059465 -2.739311 3.371483
v -1.625927 -1.115959 4.012723
v -1.625926 0.049763 4.499918
v -0.809018 0.049797 4.503580
v -0.809021 -1.109351 3.993901
v -1.625981 -2.070532 3.615568
v -0.808966 -2.077019 3.583872
v -1.625959 -2.770036 3.402341
v -0.808986 -2.751398 3.359853
v 2.015526 2.015526 5.712034
v 1.818485 1.797893 6.032569
v 0.795239 2.121459 6.078233
v 0.714181 2.410474 5.767879
v 2.745404 0.275968 5.847064
v 2.450090 0.275968 6.142231
v -2.015526 2.015526 5.707463
v -1.807938 1.812259 6.023794
v -2.745404 0.275968 5.830972
v -2.448318 0.275968 6.142231
v -0.389397 2.745404 5.856780
v -0.389397 2.443854 6.142231
v -0.963774 2.487598 5.770558
v -1.073339 2.192683 6.092853
v -3.921441 -1.101681 5.781840
v -3.620306 -1.196217 6.070738
v 2.957145 -0.643090 5.784292
v 2.667008 -0.643497 6.077797
v -3.829189 -2.032143 5.709639
v -3.530117 -1.988236 6.032481
v 2.723385 -1.656343 5.737016
v 2.457697 -1.563236 6.033867
v -2.187901 -2.892083 6.033086
v -2.590294 -2.916014 5.720702
v 2.220379 -2.689442 5.709422
v 1.907265 -2.717924 6.011040
vt 0.090240 0.535232
vt 0.357823 0.321793
vt 0.448276 0.324472
vt 0.085422 0.574298
vt 0.086408 0.460497
vt 0.247554 0.318330
vt 0.705772 0.449734
vt 0.707307 0.388724
vt 0.774743 0.376901
vt 0.772484 0.453047
vt 0.849841 0.779507
vt 0.842998 0.845979
vt 0.804469 0.846520
vt 0.800478 0.776539
vt 0.329260 0.747731
vt 0.327549 0.658724
vt 0.418415 0.657774
vt 0.419787 0.745954
vt 0.528918 0.669810
vt 0.529367 0.744285
vt 0.706197 0.322480
vt 0.774216 0.309319
vt 0.853127 0.707241
vt 0.799841 0.707221
vt 0.326394 0.596614
vt 0.417592 0.594723
vt 0.528770 0.605614
vt 0.702032 0.269414
vt 0.775270 0.263142
vt 0.857030 0.657949
vt 0.797568 0.658949
vt 0.416950 0.542944
vt 0.325199 0.542688
vt 0.528601 0.546591
vt 0.078984 0.897792
vt 0.452572 0.174225
vt 0.453932 0.120937
vt 0.506473 0.119017
vt 0.082039 0.847117
vt 0.450814 0.236008
vt 0.086394 0.747726
vt 0.078033 0.642219
vt 0.092890 0.239493
vt 0.081370 0.369361
vt 0.088163 0.173938
vt 0.249949 0.243389
vt 0.084724 0.101110
vt 0.252034 0.179412
vt 0.082205 0.020386
vt 0.253983 0.121113
vt 0.654746 0.418729
vt 0.696828 0.471924
vt 0.360486 0.233779
vt 0.792424 0.476122
vt 0.831916 0.405882
vt 0.625426 0.358118
vt 0.362357 0.171204
vt 0.858078 0.345185
vt 0.687959 0.163067
vt 0.363870 0.120175
vt 0.874442 0.303390
vt 0.852206 0.864803
vt 0.900396 0.809878
vt 0.787089 0.866400
vt 0.747280 0.805076
vt 0.934747 0.751529
vt 0.717752 0.746742
vt 0.957058 0.707039
vt 0.785591 0.544046
vt 0.039067 0.369342
vt 0.562904 0.840675
vt 0.601871 0.743746
vt 0.029442 0.239460
vt 0.036037 0.460474
vt 0.498510 0.863548
vt 0.031189 0.535210
vt 0.422786 0.885080
vt 0.615987 0.685319
vt 0.033589 0.173916
vt 0.042701 0.642205
vt 0.330210 0.847944
vt 0.378628 0.870833
vt 0.037796 0.574274
vt 0.036388 0.747708
vt 0.284398 0.748577
vt 0.039389 0.847104
vt 0.209484 0.652876
vt 0.043521 0.897780
vt 0.214652 0.603306
vt 0.603213 0.625860
vt 0.036763 0.101082
vt 0.042960 0.979629
vt 0.298344 0.541775
vt 0.567982 0.550082
vt 0.596592 0.548091
vt 0.376548 0.128063
vt 0.440813 0.128611
vt 0.375280 0.171587
vt 0.439629 0.173869
vt 0.373427 0.234166
vt 0.437868 0.235639
vt 0.371167 0.309227
vt 0.435699 0.311139
vt 0.349433 0.170817
vt 0.350721 0.128070
vt 0.266645 0.128789
vt 0.264969 0.179834
vt 0.347545 0.233390
vt 0.262891 0.243807
vt 0.260916 0.305792
vt 0.345270 0.308440
vt 0.281982 0.457830
vt 0.352918 0.481706
vt 0.390799 0.466166
vt 0.460276 0.438000
vt 0.584876 0.178648
vt 0.589080 0.239104
vt 0.160254 0.190099
vt 0.143028 0.255225
vt 0.510431 0.326154
vt 0.154838 0.315287
vt 0.198275 0.429896
vt 0.076886 0.979640
vt 0.194897 0.124312
vt 0.038707 0.020360
vt 0.628412 0.616733
vt 0.187422 0.595367
vt 0.266010 0.533015
vt 0.642960 0.684465
vt 0.182868 0.660437
vt 0.423489 0.911871
vt 0.381062 0.900595
vt 0.256646 0.754370
vt 0.310220 0.867871
vt 0.628624 0.746725
vt 0.497676 0.891854
vt 0.582222 0.860602
vt 0.698746 0.704639
vt 0.858058 0.543494
vt 0.777101 0.154537
vt 0.604938 0.309127
vn 0.005114 0.018960 -0.999807
vn 0.003610 0.016740 -0.999853
vn -0.038916 0.023567 -0.998964
vn -0.041195 0.033985 -0.998573
vn 0.032844 0.036113 -0.998808
vn 0.030976 0.025512 -0.999194
vn -0.030968 0.423759 -0.905245
vn -0.033899 0.405112 -0.913639
vn -0.034692 0.400019 -0.915850
vn -0.030968 0.423759 -0.905246
vn -0.017935 0.391091 -0.920177
vn -0.010129 0.394066 -0.919026
vn -0.010129 0.394066 -0.919026
vn -0.018960 0.390699 -0.920323
vn -0.027585 0.009433 0.999575
vn -0.019557 -0.019930 0.999610
vn 0.002860 -0.011194 0.999933
vn 0.002345 0.004757 0.999986
vn 0.022341 -0.024391 0.999453
vn 0.020871 0.010577 0.999726
vn -0.019444 0.342985 -0.939140
vn -0.011376 0.327129 -0.944911
vn -0.034716 0.356800 -0.933536
vn -0.036307 0.348944 -0.936440
vn -0.035039 -0.024513 0.999085
vn 0.005317 -0.010099 0.999935
vn 0.041700 -0.021978 0.998888
vn 0.016061 0.272416 -0.962045
vn 0.016061 0.272416 -0.962045
vn -0.045470 0.302954 -0.951920
vn -0.045470 0.302954 -0.951920
vn 0.005481 -0.009179 0.999943
vn -0.045183 -0.027875 0.998590
vn 0.050306 -0.020113 0.998531
vn -0.037246 -0.046121 -0.998241
vn -0.041646 -0.049153 -0.997923
vn -0.060775 -0.069281 -0.995744
vn -0.063567 -0.075354 -0.995129
vn -0.024590 -0.035046 -0.999083
vn -0.022183 -0.032221 -0.999235
vn -0.032565 0.005700 -0.999453
vn -0.070979 0.082787 -0.994036
vn 0.030021 0.014664 -0.999442
vn 0.042664 0.075148 -0.996259
vn 0.027386 -0.046205 -0.998556
vn 0.028847 -0.043367 -0.998643
vn 0.049914 -0.043593 -0.997802
vn 0.052416 -0.041367 -0.997768
vn 0.072361 -0.046658 -0.996287
vn 0.067687 -0.042615 -0.996796
vn 0.024626 -0.026096 -0.999356
vn 0.008653 -0.019905 -0.999764
vn 0.001663 -0.000487 -0.999998
vn 0.009129 -0.007032 -0.999934
vn 0.023739 -0.000440 -0.999718
vn 0.031148 -0.020513 -0.999304
vn 0.001066 -0.000538 -0.999999
vn 0.028063 -0.000488 -0.999606
vn 0.041376 -0.018510 -0.998972
vn 0.002330 -0.005965 -0.999980
vn 0.039053 -0.011005 -0.999177
vn -0.008415 -0.014277 -0.999863
vn -0.020356 -0.018375 -0.999624
vn -0.008415 -0.004521 -0.999954
vn -0.020415 -0.000535 -0.999791
vn -0.027914 -0.016607 -0.999472
vn -0.025837 -0.000587 -0.999666
vn -0.037530 -0.015245 -0.999179
vn -0.035549 -0.008172 -0.999335
vn 0.999753 -0.005117 0.021642
vn 0.999753 -0.005117 0.021642
vn 0.999753 -0.005117 0.021642
vn 0.999753 -0.005117 0.021642
vn -0.935998 0.075790 -0.343748
vn -0.935998 0.075790 -0.343748
vn -0.935998 0.075790 -0.343748
vn -0.935998 0.075790 -0.343748
vn -0.000170 0.998136 -0.061021
vn -0.000170 0.998137 -0.061021
vn -0.000170 0.998136 -0.061021
vn -0.000170 0.998136 -0.061021
vn 0.999915 -0.002340 0.012858
vn 0.999915 -0.002340 0.012858
vn 0.999915 -0.002340 0.012858
vn 0.999915 -0.002340 0.012858
vn -0.975959 0.044922 -0.213276
vn -0.975959 0.044922 -0.213276
vn -0.975959 0.044922 -0.213277
vn -0.975959 0.044922 -0.213276
vn 0.999948 -0.001212 0.010079
vn 0.999948 -0.001212 0.010079
vn 0.999948 -0.001212 0.010079
vn 0.999948 -0.001212 0.010079
vn 0.044150 -0.998815 0.020466
vn 0.044150 -0.998815 0.020466
vn 0.044150 -0.998815 0.020466
vn 0.044150 -0.998815 0.020466
vn -0.985267 0.027242 -0.168838
vn -0.985267 0.027242 -0.168838
vn -0.985267 0.027242 -0.168838
vn -0.985267 0.027242 -0.168838
vn -0.998154 -0.011878 0.059555
vn -0.998154 -0.011878 0.059555
vn -0.998154 -0.011878 0.059555
vn -0.998154 -0.011878 0.059555
vn 0.000208 0.998136 -0.061031
vn 0.000208 0.998136 -0.061031
vn 0.000208 0.998136 -0.061031
vn 0.000208 0.998136 -0.061031
vn 0.949117 0.067658 -0.307569
vn 0.949117 0.067658 -0.307569
vn 0.949117 0.067658 -0.307569
vn 0.949117 0.067658 -0.307569
vn -0.999345 -0.007030 0.035492
vn -0.999345 -0.007030 0.035492
vn -0.999345 -0.007030 0.035492
vn -0.999345 -0.007030 0.035492
vn 0.981130 0.039882 -0.189194
vn 0.981130 0.039882 -0.189194
vn 0.981130 0.039882 -0.189194
vn 0.981130 0.039882 -0.189194
vn -0.999607 -0.004062 0.027727
vn -0.999607 -0.004062 0.027727
vn -0.999607 -0.004062 0.027727
vn -0.999607 -0.004062 0.027727
vn 0.988542 0.024775 -0.148902
vn 0.988542 0.024775 -0.148902
vn 0.988542 0.024775 -0.148902
vn 0.988542 0.024775 -0.148902
vn 0.021249 -0.999663 0.014879
vn 0.021249 -0.999663 0.014879
vn 0.021249 -0.999663 0.014879
vn 0.021249 -0.999664 0.014879
vn 0.676153 0.331615 0.657912
vn 0.676153 0.331615 0.657912
vn 0.688953 0.263233 0.675317
vn 0.690214 0.255176 0.677119
vn 0.253590 0.730919 0.633600
vn 0.253590 0.730919 0.633600
vn 0.250653 0.719395 0.647799
vn 0.250133 0.717361 0.650251
vn 0.246908 0.704821 0.665029
vn 0.246908 0.704821 0.665029
vn 0.710390 -0.019706 0.703532
vn 0.709407 -0.068450 0.701468
vn -0.586592 0.478177 0.653649
vn -0.587770 0.476568 0.653766
vn -0.365575 0.700067 0.613401
vn -0.369577 0.700221 0.610822
vn -0.637213 0.397665 0.660168
vn -0.639033 0.395022 0.659995
vn -0.591788 0.459553 0.662268
vn -0.591788 0.459553 0.662267
vn -0.350031 0.699323 0.623238
vn -0.350031 0.699323 0.623238
vn -0.713599 -0.119845 0.690227
vn -0.713599 -0.119845 0.690227
vn -0.713599 -0.119845 0.690227
vn -0.713599 -0.119845 0.690227
vn 0.680881 -0.264658 0.682903
vn 0.677147 -0.277607 0.681474
vn -0.464115 -0.666281 0.583667
vn -0.464115 -0.666281 0.583667
vn -0.464115 -0.666281 0.583667
vn -0.464115 -0.666281 0.583667
vn 0.659538 -0.333102 0.673835
vn 0.659538 -0.333102 0.673835
vn -0.409488 0.912316 -0.000000
vn -0.409488 0.912316 -0.000000
vn -0.409487 0.912316 -0.000000
vn -0.409487 0.912316 -0.000000
vn -0.033220 0.026617 0.999094
vn 0.003949 0.018059 0.999829
vn -0.842926 0.538029 -0.000000
vn -0.843966 0.536396 -0.000000
vn -0.922122 0.386900 -0.000000
vn -0.922122 0.386900 -0.000000
vn 0.944111 0.329626 0.000000
vn 0.944264 0.329190 0.000000
vn 0.922122 0.386900 0.000000
vn 0.922122 0.386900 0.000000
vn 0.025719 0.029148 0.999244
vn 0.290413 0.956901 0.000000
vn 0.290413 0.956901 0.000000
vn 0.290414 0.956901 0.000000
vn 0.290414 0.956901 0.000000
vn -0.760566 0.649261 -0.000001
vn -0.760566 0.649261 -0.000001
vn 0.999166 0.040826 0.000000
vn 0.998995 0.044817 0.000000
vn -0.995121 -0.098662 0.000000
vn -0.995121 -0.098662 0.000000
vn -0.995121 -0.098662 0.000000
vn -0.995121 -0.098662 0.000000
vn 0.946702 -0.322110 0.000000
vn 0.947345 -0.320214 0.000000
vn -0.580780 -0.814061 -0.000000
vn -0.580780 -0.814061 -0.000000
vn -0.580780 -0.814061 -0.000000
vn -0.580780 -0.814061 -0.000000
vn 0.899092 -0.437759 0.000000
vn 0.899092 -0.437759 0.000000
vn -0.409487 0.912316 -0.000000
vn -0.409487 0.912316 -0.000000
vn -0.030373 -0.001415 0.999538
vn -0.069750 0.075661 0.994691
vn -0.025630 -0.031350 0.999180
vn -0.034922 -0.036700 0.998716
vn -0.055573 -0.050383 0.997183
vn 0.048711 -0.039489 0.998032
vn 0.070094 -0.038066 0.996814
vn 0.027243 -0.043030 0.998702
vn 0.023181 0.004928 0.999719
vn 0.030342 0.061803 0.997627
vn 0.290412 0.956902 0.000000
vn 0.290412 0.956902 0.000000
s 1
g pCube2
usemtl lambert4SG
f 7/113/1 9/2/2 23/3/3 24/114/4
f 34/112/5 35/6/6 9/2/2 7/113/1
s 2
f 54/7/7 55/8/8 56/9/9 57/10/10
s 3
f 62/11/11 63/12/12 64/13/13 65/14/14
s 4
f 25/15/15 26/16/16 15/17/17 11/18/18
f 32/19/19 33/20/20 11/18/18 15/17/17
s 2
f 55/8/8 58/21/21 59/22/22 56/9/9
s 3
f 66/23/23 62/11/11 65/14/14 67/24/24
s 4
f 26/16/16 27/25/25 19/26/26 15/17/17
f 31/27/27 32/19/19 15/17/17 19/26/26
s 2
f 58/21/21 60/28/28 61/29/29 59/22/22
s 3
f 68/30/30 66/23/23 67/24/24 69/31/31
s 4
f 6/32/32 19/26/26 27/25/25 28/33/33
f 30/34/34 31/27/27 19/26/26 6/32/32
s 1
f 18/116/35 21/36/36 20/37/37 2/38/38
f 14/117/39 22/40/40 21/36/36 18/116/35
f 10/120/41 23/3/3 22/40/40 14/117/39
f 24/114/4 23/3/3 10/120/41 4/115/42
f 8/121/43 35/6/6 34/112/5 3/122/44
f 12/119/45 36/46/46 35/6/6 8/121/43
f 16/118/47 37/48/48 36/46/46 12/119/45
f 1/124/49 29/50/50 37/48/48 16/118/47
f 35/6/6 36/46/46 39/109/51 38/110/52
f 13/53/53 9/2/2 41/111/54 40/108/55
f 9/2/2 35/6/6 38/110/52 41/111/54
f 36/46/46 37/48/48 42/107/56 39/109/51
f 17/57/57 13/53/53 40/108/55 43/104/58
f 37/48/48 29/50/50 44/106/59 42/107/56
f 29/50/50 5/60/60 45/105/61 44/106/59
f 5/60/60 17/57/57 43/104/58 45/105/61
f 22/40/40 23/3/3 47/103/62 46/101/63
f 23/3/3 9/2/2 48/102/64 47/103/62
f 9/2/2 13/53/53 49/100/65 48/102/64
f 21/36/36 22/40/40 46/101/63 50/99/66
f 13/53/53 17/57/57 51/98/67 49/100/65
f 20/37/37 21/36/36 50/99/66 52/97/68
f 17/57/57 5/60/60 53/96/69 51/98/67
f 5/60/60 20/37/37 52/97/68 53/96/69
s off
f 38/52/70 39/51/71 55/8/72 54/7/73
f 40/55/74 41/54/75 57/10/76 56/9/77
f 41/54/78 38/52/79 54/7/80 57/10/81
f 39/51/82 42/56/83 58/21/84 55/8/85
f 43/58/86 40/55/87 56/9/88 59/22/89
f 42/56/90 44/141/91 60/28/92 58/21/93
f 44/59/94 45/140/95 61/29/96 60/28/97
f 45/61/98 43/58/99 59/22/100 61/29/101
f 46/63/102 47/62/103 63/12/104 62/11/105
f 47/62/106 48/64/107 64/13/108 63/12/109
f 48/64/110 49/65/111 65/14/112 64/13/113
f 50/66/114 46/63/115 62/11/116 66/23/117
f 49/65/118 51/67/119 67/24/120 65/14/121
f 52/68/122 50/66/123 66/23/124 68/30/125
f 51/67/126 53/138/127 69/31/128 67/24/129
f 53/69/130 52/139/131 68/30/132 69/31/133
s 7
f 70/137/134 71/71/135 75/72/136 74/135/137
s 8
f 71/71/138 70/137/139 73/136/140 72/75/141
f 72/75/141 73/136/140 80/131/142 81/77/143
s 7
f 74/135/137 75/72/136 87/78/144 86/129/145
s 9
f 76/134/146 77/81/147 83/82/148 82/132/149
f 77/81/147 76/134/146 78/133/150 79/85/151
f 79/85/151 78/133/150 84/130/152 85/87/153
f 81/77/154 80/131/155 82/132/149 83/82/148
s off
f 85/87/156 84/130/157 88/127/158 89/89/159
s 7
f 86/129/145 87/78/144 91/90/160 90/126/161
s off
f 89/89/162 88/127/163 93/128/164 92/93/165
s 7
f 90/126/161 91/90/160 95/94/166 94/95/167
s 10
f 80/76/168 7/1/169 24/4/170 82/83/171
s 4
f 83/82/172 25/15/15 11/18/18 81/77/173
s 11
f 10/41/174 78/84/175 76/80/176 4/42/177
s 12
f 74/73/178 8/43/179 3/44/180 70/70/181
s 4
f 33/20/20 72/75/182 81/77/173 11/18/18
s 13
f 73/74/183 34/5/184 7/1/185 80/76/186
s 11
f 14/39/187 84/86/188 78/84/175 10/41/174
s 12
f 86/79/189 12/45/190 8/43/179 74/73/178
s off
f 18/35/191 88/88/192 84/86/193 14/39/194
s 12
f 90/91/195 16/47/196 12/45/190 86/79/189
s off
f 2/123/197 93/92/198 88/88/199 18/35/200
s 12
f 90/91/195 94/125/201 1/49/202 16/47/196
s 10
f 82/83/171 24/4/170 4/42/203 76/80/204
s 4
f 79/85/205 25/15/15 83/82/172 77/81/206
f 85/87/207 26/16/16 25/15/15 79/85/205
f 89/89/208 27/25/25 26/16/16 85/87/207
f 28/33/33 27/25/25 89/89/208 92/93/209
f 91/90/210 31/27/27 30/34/34 95/94/211
f 87/78/212 32/19/19 31/27/27 91/90/210
f 75/72/213 33/20/20 32/19/19 87/78/212
f 71/71/214 72/75/182 33/20/20 75/72/213
s 13
f 3/44/215 34/5/184 73/74/183 70/70/216
