# This file uses centimeters as units for non-parametric coordinates.

mtllib Palito1.mtl
g default
v -0.500000 -6.934903 0.184536
v 0.500000 -6.934903 0.184536
v -0.500000 4.091825 0.184536
v 0.500000 4.091825 0.184536
v -0.500000 4.091825 -0.184536
v 0.500000 4.091825 -0.184536
v -0.500000 -6.934903 -0.184536
v 0.500000 -6.934903 -0.184536
v -0.500000 2.778848 0.184536
v 0.500000 2.778848 0.184536
v 0.500000 2.778848 -0.184536
v -0.500000 2.778848 -0.184536
v -0.288589 -0.542127 0.184536
v 0.657695 -0.218791 0.184536
v 0.657695 -0.218791 -0.184536
v -0.288589 -0.542127 -0.184536
v -0.788067 -2.411975 0.184536
v 0.211933 -2.411975 0.184536
v 0.211933 -2.411975 -0.184536
v -0.788067 -2.411975 -0.184536
v 0.219901 1.365228 -0.184536
v 0.219901 1.365228 0.184536
v -0.749175 1.611990 0.184536
v -0.749175 1.611990 -0.184536
vt 0.067462 0.853765
vt 0.213032 0.842670
vt 0.071460 0.963438
vt 0.129800 0.951530
vt 0.035824 0.964462
vt 0.232352 0.949725
vt 0.236427 0.825475
vt 0.036310 0.853630
vt 0.067869 0.570133
vt 0.226567 0.593703
vt 0.190087 0.725227
vt 0.067661 0.753555
vt 0.230758 0.572317
vt 0.265630 0.703676
vt 0.347959 0.725365
vt 0.037232 0.570117
vt 0.067649 0.409977
vt 0.071536 0.412826
vt 0.266257 0.395440
vt 0.037196 0.410039
vt 0.066669 0.036449
vt 0.214730 0.035862
vt 0.102109 0.035973
vt 0.317841 0.035401
vt 0.109572 0.745588
vt 0.129980 0.842495
vt 0.107017 0.411312
vt 0.148032 0.566696
vt 0.066978 0.964599
vt 0.131665 0.035702
vt 0.102151 0.735197
vt 0.102221 0.598807
vt 0.102219 0.412818
vt 0.238398 0.036535
vt 0.102099 0.854636
vt 0.102070 0.963438
vt 0.071540 0.735186
vt 0.071511 0.854625
vt 0.190055 0.411491
vt 0.071568 0.598804
vt 0.212825 0.951688
vt 0.071420 0.035981
vt 0.036839 0.753483
vt 0.308113 0.545557
vt 0.346011 0.394443
vt 0.036252 0.036527
vt 0.326710 0.827784
vt 0.325765 0.950443
vn 0.000000 0.000000 1.000000
vn 0.000000 0.000000 1.000000
vn 0.000000 0.000000 1.000000
vn 0.000000 0.000000 1.000000
vn 0.000000 0.000000 -1.000000
vn 0.000000 0.000000 -1.000000
vn 0.000000 0.000000 -1.000000
vn 0.000000 0.000000 -1.000000
vn 0.994765 -0.102191 0.000000
vn 0.994765 -0.102191 0.000000
vn 1.000000 0.000000 0.000000
vn 1.000000 0.000000 0.000000
vn -0.994990 0.099977 0.000000
vn -0.994990 0.099977 0.000000
vn -1.000000 0.000000 0.000000
vn -1.000000 0.000000 0.000000
vn 0.000000 0.000000 1.000000
vn 0.000000 0.000000 1.000000
vn 0.000000 0.000000 1.000000
vn 0.000000 0.000000 1.000000
vn 0.999998 -0.002109 0.000000
vn 0.999998 -0.002109 0.000000
vn 0.998619 0.052534 0.000000
vn 0.998619 0.052534 0.000000
vn 0.000000 0.000000 -1.000000
vn 0.000000 0.000000 -1.000000
vn 0.000000 0.000000 -1.000000
vn 0.000000 0.000000 -1.000000
vn -0.999953 0.009664 -0.000000
vn -0.999953 0.009664 -0.000000
vn -0.997980 -0.063531 0.000000
vn -0.997980 -0.063531 0.000000
vn 0.000000 0.000000 1.000000
vn 0.000000 0.000000 1.000000
vn 0.999725 -0.023474 0.000000
vn 0.999724 -0.023474 0.000000
vn 0.000000 0.000000 -1.000000
vn 0.000000 0.000000 -1.000000
vn -0.999454 0.033052 -0.000000
vn -0.999454 0.033052 -0.000000
vn 0.000000 0.000000 1.000000
vn 0.000000 0.000000 1.000000
vn 0.997978 0.063562 0.000000
vn 0.997978 0.063562 0.000000
vn 0.000000 0.000000 -1.000000
vn 0.000000 0.000000 -1.000000
vn -0.997978 -0.063562 0.000000
vn -0.997978 -0.063562 0.000000
s 1
g pCube2
usemtl lambert5SG
f 9/26/1 10/2/2 4/41/3 3/4/4
s 2
f 5/48/5 6/6/6 11/7/7 12/47/8
s 3
f 10/38/9 11/35/10 6/36/11 4/3/12
s 4
f 12/8/13 9/1/14 3/29/15 5/5/16
s 1
f 13/28/17 14/10/18 22/11/19 23/25/20
s 3
f 14/40/21 15/32/22 21/31/23 22/37/24
s 2
f 24/15/25 21/14/26 15/13/27 16/44/28
s 4
f 16/16/29 13/9/30 23/12/31 24/43/32
s 1
f 17/27/33 18/39/34 14/10/18 13/28/17
s 3
f 18/18/35 19/33/36 15/32/22 14/40/21
s 2
f 16/44/28 15/13/27 19/19/37 20/45/38
s 4
f 20/20/39 17/17/40 13/9/30 16/16/29
s 1
f 1/30/41 2/22/42 18/39/34 17/27/33
s 3
f 2/42/43 8/23/44 19/33/36 18/18/35
s 2
f 20/45/38 19/19/37 8/34/45 7/24/46
s 4
f 7/46/47 1/21/48 17/17/40 20/20/39
s 3
f 22/37/24 21/31/23 11/35/10 10/38/9
s 1
f 23/25/20 22/11/19 10/2/2 9/26/1
s 4
f 24/43/32 23/12/31 9/1/14 12/8/13
s 2
f 12/47/8 11/7/7 21/14/26 24/15/25
