# This file uses centimeters as units for non-parametric coordinates.

mtllib plataforma1.mtl
g default
v 10.551844 -9.722327 -2.574667
v -10.556764 -9.722327 -2.574667
v -9.401742 4.530503 4.650417
v -9.240517 4.551839 4.198002
v -9.693543 4.538430 4.299055
v 9.688623 4.538430 4.299055
v 9.235752 4.551839 4.198155
v 9.396825 4.530503 4.650417
v -10.236575 -9.722327 4.424663
v -10.556764 -9.722327 4.104236
v -10.563818 1.452854 4.541691
v -10.254117 1.462981 4.856975
v -10.452111 1.855149 5.071620
v -10.779471 1.844923 4.737844
v 10.551844 -9.722327 4.104236
v 10.231658 -9.722327 4.424663
v 10.445341 1.857611 5.075015
v 10.243418 1.458443 4.856799
v 10.558901 1.456441 4.546286
v 10.777757 1.846983 4.735934
v -9.693291 4.538445 -2.657134
v -9.240670 4.551839 -2.574667
v 9.235752 4.551839 -2.574667
v 9.688374 4.538445 -2.657134
v 10.775939 1.845814 -2.943636
v 10.558897 1.448399 -2.825897
v -11.292783 2.175160 5.193110
v -10.922063 2.161949 5.494614
v -11.192838 2.564223 5.703999
v -11.508304 2.567488 5.389093
v 11.503388 2.567488 5.389093
v 11.193335 2.559926 5.703999
v 10.926316 2.164325 5.497891
v 11.287863 2.175160 5.193110
v 11.188439 4.449583 5.235343
v 10.559721 4.460734 5.388608
v 11.195643 4.123180 5.703999
v 11.503388 4.120939 5.394012
v -11.508304 4.120939 5.394012
v -11.205966 4.128588 5.703999
v -10.578466 4.460298 5.393228
v -11.193354 4.449583 5.235343
v 11.503388 2.571746 -3.319100
v 11.286471 2.174262 -3.207141
v 11.192807 4.449324 -3.205826
v 11.503388 4.119801 -3.319100
v -11.508304 4.119801 -3.319100
v -11.197724 4.449324 -3.205826
v -10.563814 1.448399 -2.825897
v -10.780857 1.845814 -2.943636
v -11.291386 2.174262 -3.207141
v -11.508304 2.571746 -3.319100
vt 0.334511 0.394567
vt 0.304777 0.380188
vt 0.336223 0.390287
vt 0.338613 0.398767
vt 0.337377 0.523263
vt 0.680983 0.393799
vt 0.713942 0.383306
vt 0.686283 0.400274
vt 0.685259 0.528100
vt 0.315533 0.107931
vt 0.313413 0.312786
vt 0.244933 0.529141
vt 0.321409 0.313466
vt 0.317727 0.321675
vt 0.302687 0.326912
vt 0.699074 0.111927
vt 0.707371 0.111779
vt 0.697359 0.317075
vt 0.707617 0.321878
vt 0.715923 0.330957
vt 0.778408 0.396285
vt 0.777665 0.531832
vt 0.264361 0.536245
vt 0.309066 0.331174
vt 0.709622 0.335170
vt 0.304074 0.339461
vt 0.295749 0.368765
vt 0.750920 0.380627
vt 0.759119 0.384279
vt 0.758111 0.538717
vt 0.722471 0.342861
vt 0.722384 0.380365
vt 0.721273 0.540535
vt 0.702434 0.380412
vt 0.314925 0.376561
vt 0.303548 0.368087
vt 0.302834 0.379313
vt 0.301200 0.534532
vt 0.714381 0.343416
vt 0.714138 0.372027
vt 0.323826 0.108244
vt 0.700948 0.325501
vt 0.677953 0.402078
vt 0.676923 0.526513
vt 0.714003 0.383232
vt 0.712949 0.538396
vt 0.749765 0.540722
vt 0.770206 0.392750
vt 0.769315 0.533943
vt 0.983884 0.405653
vt 0.983142 0.528455
vt 0.238063 0.391405
vt 0.236627 0.526891
vt 0.031245 0.520204
vt 0.032476 0.397393
vt 0.257641 0.379621
vt 0.256050 0.534102
vt 0.246329 0.387879
vt 0.294489 0.376308
vt 0.292846 0.536532
vt 0.265912 0.376101
vt 0.330301 0.396819
vt 0.329032 0.524703
vt 0.686284 0.400292
vt 0.311246 0.317984
vt 0.705386 0.316698
vt 0.299275 0.328970
vt 0.295932 0.338658
vt 0.719343 0.333083
vt 0.715837 0.382020
vt 0.721993 0.372975
vt 0.301700 0.377971
vn -0.000984 0.996743 0.080638
vn -0.055087 0.998481 0.001280
vn -0.055820 0.998427 0.005335
vn -0.002558 0.995932 0.090069
vn -0.000851 0.999994 0.003207
vn 0.000983 0.996743 0.080633
vn 0.000851 0.999995 0.003207
vn -0.000873 1.000000 0.000000
vn -0.055313 0.998469 0.000000
vn 0.055086 0.998481 0.001285
vn 0.002566 0.995932 0.090067
vn 0.055856 0.998425 0.005289
vn 0.055314 0.998469 0.000000
vn 0.000873 1.000000 0.000000
vn -0.709845 -0.028157 0.703795
vn -0.709845 -0.028157 0.703795
vn -0.709845 -0.028157 0.703795
vn -0.709845 -0.028157 0.703795
vn -0.999651 -0.026405 0.000010
vn -0.634022 -0.772988 0.022472
vn -0.658279 -0.752774 0.000060
vn -0.999709 -0.024111 0.000009
vn -0.010508 -0.711162 0.702950
vn -0.000004 -0.058345 0.998296
vn -0.000004 -0.058326 0.998298
vn 0.010480 -0.711616 0.702491
vn -0.010875 -0.627984 0.778151
vn -0.767201 -0.640528 0.033549
vn 0.704135 -0.028332 0.709501
vn 0.704135 -0.028332 0.709501
vn 0.704135 -0.028332 0.709501
vn 0.704135 -0.028332 0.709501
vn 0.634082 -0.772937 0.022532
vn 0.767554 -0.640127 0.033148
vn 0.010833 -0.627305 0.778699
vn 0.999650 -0.026467 0.000010
vn 0.999705 -0.024266 0.000009
vn 0.657749 -0.753238 0.000059
vn -0.996484 -0.083789 -0.000029
vn -0.995528 -0.094466 -0.000033
vn -0.760266 -0.649611 -0.000100
vn -0.000017 -0.088952 0.996036
vn -0.000017 -0.089144 0.996019
vn -0.711108 -0.004103 0.703071
vn -0.711108 -0.004103 0.703071
vn -0.711108 -0.004103 0.703071
vn -0.711108 -0.004103 0.703071
vn 0.996484 -0.083789 -0.000029
vn 0.760529 -0.649304 -0.000100
vn 0.995528 -0.094466 -0.000033
vn 0.711138 -0.001636 0.703050
vn 0.711138 -0.001636 0.703051
vn 0.711138 -0.001636 0.703051
vn 0.711138 -0.001636 0.703051
vn 0.724846 0.688911 0.000128
vn 0.724846 0.688911 0.000128
vn 0.724846 0.688911 0.000128
vn 0.724846 0.688911 0.000128
vn 0.010369 0.688556 0.725109
vn 0.004819 0.685661 0.727905
vn -0.004605 0.685756 0.727816
vn -0.010210 0.688732 0.724944
vn -0.724845 0.688912 0.000129
vn -0.724845 0.688912 0.000129
vn -0.724845 0.688912 0.000129
vn -0.724845 0.688912 0.000129
vn 0.000000 0.000000 1.000000
vn 0.000000 0.000000 1.000000
vn -0.000000 -0.038621 0.999254
vn -0.000000 -0.038621 0.999254
vn 0.059135 0.998250 0.000000
vn 1.000000 0.000000 0.000000
vn 1.000000 0.000000 0.000000
vn 1.000000 -0.000631 0.000000
vn 1.000000 -0.000631 0.000000
vn -1.000000 -0.000631 -0.000000
vn -1.000000 -0.000631 -0.000000
vn -1.000000 -0.000000 0.000000
vn -1.000000 -0.000000 0.000000
vn -0.059136 0.998250 0.000000
vn -0.563338 -0.596564 0.571631
vn -0.563338 -0.596564 0.571631
vn 0.562823 -0.595795 0.572938
vn 0.562823 -0.595795 0.572938
vn -0.532557 -0.619914 0.576272
vn -0.532557 -0.619914 0.576272
vn 0.540740 -0.620820 0.567611
vn 0.540740 -0.620820 0.567611
vn 0.281163 0.789511 0.545546
vn 0.281163 0.789511 0.545546
vn -0.289115 0.793407 0.535647
vn -0.289115 0.793407 0.535647
s 1
g pCube1
usemtl lambert3SG
f 3/3/1 5/1/2 42/2/3 41/35/4
f 4/4/5 3/3/1 8/6/6 7/43/7
f 5/62/2 4/4/5 22/5/8 21/63/9
f 6/64/10 8/6/6 36/34/11 35/7/12
f 7/43/7 6/8/10 24/9/13 23/44/14
s off
f 10/10/15 9/41/16 12/13/17 11/11/18
s 2
f 11/52/19 14/58/20 50/12/21 49/53/22
f 13/14/23 12/13/24 18/18/25 17/42/26
f 14/65/20 13/14/23 28/24/27 27/15/28
s off
f 16/16/29 15/17/30 19/66/31 18/18/32
s 2
f 17/42/26 20/19/33 34/20/34 33/25/35
f 20/48/33 19/21/36 26/22/37 25/49/38
f 27/56/28 30/61/39 52/23/40 51/57/41
f 29/26/42 28/24/27 33/25/35 32/39/43
s off
f 30/68/44 29/26/45 40/36/46 39/27/47
s 2
f 31/28/48 34/29/34 44/30/49 43/47/50
s off
f 32/39/51 31/31/52 38/71/53 37/40/54
f 35/45/55 38/32/56 46/33/57 45/46/58
s 8
f 37/40/59 36/34/60 41/35/61 40/36/62
s off
f 39/59/63 42/37/64 48/38/65 47/60/66
s 2
f 29/26/42 32/39/43 37/40/67 40/36/68
f 12/13/24 9/41/69 16/16/70 18/18/25
f 13/14/23 17/42/26 33/25/35 28/24/27
s 1
f 8/6/6 3/3/1 41/35/4 36/34/11
f 4/4/5 7/43/7 23/44/14 22/5/8
f 35/45/12 45/46/71 24/9/13 6/8/10
s 2
f 31/28/48 43/47/50 46/33/72 38/32/73
f 20/48/33 25/49/38 44/30/49 34/29/34
f 19/21/36 15/50/74 1/51/75 26/22/37
f 11/52/19 49/53/22 2/54/76 10/55/77
f 27/56/28 51/57/41 50/12/21 14/58/20
f 39/59/78 47/60/79 52/23/40 30/61/39
s 1
f 5/62/2 21/63/9 48/38/80 42/37/3
f 3/3/1 4/4/5 5/1/2
f 6/64/10 7/43/7 8/6/6
s 2
f 11/11/81 12/13/82 13/14/23 14/65/20
f 17/42/26 18/18/83 19/66/84 20/19/33
f 27/67/28 28/24/27 29/26/85 30/68/86
f 31/31/87 32/39/88 33/25/35 34/69/34
s 8
f 35/70/89 36/34/60 37/40/59 38/71/90
f 39/27/91 40/36/62 41/35/61 42/72/92
